<svg xmlns="http://www.w3.org/2000/svg" width="96" height="96" viewBox="0 0 96 96" role="img" aria-labelledby="title desc">
    <title id="title">Orb Chrysa Sumi Stem dark mark</title>
    <desc id="desc">High-contrast dark Sumi Stem logo mark for Orb Chrysa.</desc>
    <rect width="96" height="96" rx="0" fill="transparent"/>
    <defs>
    <radialGradient id="d-dark-bloom" cx="36%" cy="24%" r="76%">
      <stop stop-color="#ffffff"/>
      <stop offset="0.45" stop-color="#fff8df"/>
      <stop offset="1" stop-color="#d8ceb2"/>
    </radialGradient>
    <linearGradient id="d-dark-stem" x1="14" y1="82" x2="70" y2="17" gradientUnits="userSpaceOnUse">
      <stop stop-color="#fff3d7"/>
      <stop offset="0.52" stop-color="#f8edcf"/>
      <stop offset="1" stop-color="#fffaf0"/>
    </linearGradient>
    <linearGradient id="d-dark-leaf" x1="18" y1="82" x2="55" y2="54" gradientUnits="userSpaceOnUse">
      <stop stop-color="#102819"/>
      <stop offset="1" stop-color="#3f6f44"/>
    </linearGradient>
    <linearGradient id="d-dark-tech" x1="36" y1="62" x2="82" y2="20" gradientUnits="userSpaceOnUse">
      <stop stop-color="#1f86ff"/>
      <stop offset="1" stop-color="#64d2ff"/>
    </linearGradient>
    <filter id="d-dark-shadow" x="-35%" y="-35%" width="170%" height="170%">
      <feDropShadow dx="0" dy="8" stdDeviation="7" flood-color="#000000" flood-opacity=".46"/>
    </filter>
    <filter id="d-dark-bloom-shadow" x="-25%" y="-25%" width="150%" height="150%">
      <feDropShadow dx="0" dy="1.1" stdDeviation="0.75" flood-color="#7a6f55" flood-opacity=".34"/>
    </filter>
    <filter id="d-dark-glow" x="-80%" y="-80%" width="260%" height="260%">
      <feGaussianBlur stdDeviation="3" result="blur"/>
      <feColorMatrix in="blur" type="matrix" values="0 0 0 0 0.18 0 0 0 0 0.82 0 0 0 0 0.35 0 0 0 .42 0"/>
    </filter>
  </defs>
    <g filter="url(#d-dark-shadow)">
      <path d="M52 18c-15 2-27 14-29 31-2 19 12 33 31 33" fill="none" stroke="rgba(0,0,0,.72)" stroke-width="11" stroke-linecap="round"/>
      <path d="M52 18c-15 2-27 14-29 31-2 19 12 33 31 33" fill="none" stroke="url(#d-dark-stem)" stroke-width="7.4" stroke-linecap="round"/>
      <path d="M53 20c-12 3-21 14-22 28-1 14 7 24 21 28" fill="none" stroke="rgba(255,255,255,.55)" stroke-width="1.25" stroke-linecap="round" opacity=".78"/>
      <path d="M36 76c6-12 9-25 6-38" fill="none" stroke="rgba(0,0,0,.70)" stroke-width="8.8" stroke-linecap="round"/>
      <path d="M36 76c6-12 9-25 6-38" fill="none" stroke="url(#d-dark-stem)" stroke-width="5.6" stroke-linecap="round"/>
      <path d="M35 72c-12-6-23 1-29 9 14 3 25 0 34-9Z" fill="url(#d-dark-leaf)" stroke="rgba(164,204,151,.36)" stroke-width="1.2"/>
      <path d="M35 72c-7 0-14 3-21 8" fill="none" stroke="rgba(221,246,210,.42)" stroke-width="1.25" stroke-linecap="round"/>
      <path d="M40 61c9 7 21 7 31 1" fill="none" stroke="rgba(0,0,0,.62)" stroke-width="6.4" stroke-linecap="round"/>
      <path d="M40 61c9 7 21 7 31 1" fill="none" stroke="url(#d-dark-tech)" stroke-width="4.2" stroke-linecap="round" opacity=".98"/>
      <circle cx="58" cy="29" r="28" fill="#30d158" opacity=".10" filter="url(#d-dark-glow)"/>
      <g><circle cx="58" cy="29" r="24.5" fill="rgba(255,246,214,.10)" stroke="rgba(255,250,230,.28)" stroke-width="1.2"/><ellipse cx="78.16" cy="28.87" rx="2.55" ry="8.40" transform="rotate(-0.4 78.16 28.87)" fill="#ffffff" stroke="rgba(128,116,84,.42)" stroke-width="0.72" opacity="1" filter="url(#d-dark-bloom-shadow)"/><ellipse cx="78.56" cy="35.11" rx="2.55" ry="8.40" transform="rotate(17.6 78.56 35.11)" fill="url(#d-dark-bloom)" stroke="rgba(128,116,84,.42)" stroke-width="0.72" opacity="1" filter="url(#d-dark-bloom-shadow)"/><ellipse cx="76.57" cy="38.22" rx="2.55" ry="8.40" transform="rotate(27.9 76.57 38.22)" fill="url(#d-dark-bloom)" stroke="rgba(128,116,84,.42)" stroke-width="0.72" opacity="1" filter="url(#d-dark-bloom-shadow)"/><ellipse cx="74.07" cy="40.87" rx="2.55" ry="8.40" transform="rotate(38.1 74.07 40.87)" fill="url(#d-dark-bloom)" stroke="rgba(128,116,84,.42)" stroke-width="0.72" opacity="1" filter="url(#d-dark-bloom-shadow)"/><ellipse cx="72.49" cy="44.36" rx="2.55" ry="8.40" transform="rotate(48.5 72.49 44.36)" fill="url(#d-dark-bloom)" stroke="rgba(128,116,84,.42)" stroke-width="0.72" opacity="1" filter="url(#d-dark-bloom-shadow)"/><ellipse cx="66.52" cy="47.33" rx="2.55" ry="8.40" transform="rotate(66.4 66.52 47.33)" fill="#ffffff" stroke="rgba(128,116,84,.42)" stroke-width="0.72" opacity="1" filter="url(#d-dark-bloom-shadow)"/><ellipse cx="62.77" cy="47.95" rx="2.55" ry="8.40" transform="rotate(76.7 62.77 47.95)" fill="url(#d-dark-bloom)" stroke="rgba(128,116,84,.42)" stroke-width="0.72" opacity="1" filter="url(#d-dark-bloom-shadow)"/><ellipse cx="59.06" cy="47.92" rx="2.55" ry="8.40" transform="rotate(87.0 59.06 47.92)" fill="url(#d-dark-bloom)" stroke="rgba(128,116,84,.42)" stroke-width="0.72" opacity="1" filter="url(#d-dark-bloom-shadow)"/><ellipse cx="55.26" cy="49.10" rx="2.55" ry="8.40" transform="rotate(97.3 55.26 49.10)" fill="url(#d-dark-bloom)" stroke="rgba(128,116,84,.42)" stroke-width="0.72" opacity="1" filter="url(#d-dark-bloom-shadow)"/><ellipse cx="51.65" cy="47.82" rx="2.55" ry="8.40" transform="rotate(107.6 51.65 47.82)" fill="url(#d-dark-bloom)" stroke="rgba(128,116,84,.42)" stroke-width="0.72" opacity="1" filter="url(#d-dark-bloom-shadow)"/><ellipse cx="46.12" cy="44.63" rx="2.55" ry="8.40" transform="rotate(125.5 46.12 44.63)" fill="#ffffff" stroke="rgba(128,116,84,.42)" stroke-width="0.72" opacity="1" filter="url(#d-dark-bloom-shadow)"/><ellipse cx="42.33" cy="43.30" rx="2.55" ry="8.40" transform="rotate(135.8 42.33 43.30)" fill="url(#d-dark-bloom)" stroke="rgba(128,116,84,.42)" stroke-width="0.72" opacity="1" filter="url(#d-dark-bloom-shadow)"/><ellipse cx="40.33" cy="40.14" rx="2.55" ry="8.40" transform="rotate(146.2 40.33 40.14)" fill="url(#d-dark-bloom)" stroke="rgba(128,116,84,.42)" stroke-width="0.72" opacity="1" filter="url(#d-dark-bloom-shadow)"/><ellipse cx="39.01" cy="36.78" rx="2.55" ry="8.40" transform="rotate(156.4 39.01 36.78)" fill="url(#d-dark-bloom)" stroke="rgba(128,116,84,.42)" stroke-width="0.72" opacity="1" filter="url(#d-dark-bloom-shadow)"/><ellipse cx="37.94" cy="30.85" rx="2.55" ry="8.40" transform="rotate(174.4 37.94 30.85)" fill="url(#d-dark-bloom)" stroke="rgba(128,116,84,.42)" stroke-width="0.72" opacity="1" filter="url(#d-dark-bloom-shadow)"/><ellipse cx="36.51" cy="27.34" rx="2.55" ry="8.40" transform="rotate(184.7 36.51 27.34)" fill="#ffffff" stroke="rgba(128,116,84,.42)" stroke-width="0.72" opacity="1" filter="url(#d-dark-bloom-shadow)"/><ellipse cx="37.72" cy="23.89" rx="2.55" ry="8.40" transform="rotate(195.0 37.72 23.89)" fill="url(#d-dark-bloom)" stroke="rgba(128,116,84,.42)" stroke-width="0.72" opacity="1" filter="url(#d-dark-bloom-shadow)"/><ellipse cx="39.52" cy="20.79" rx="2.55" ry="8.40" transform="rotate(205.3 39.52 20.79)" fill="url(#d-dark-bloom)" stroke="rgba(128,116,84,.42)" stroke-width="0.72" opacity="1" filter="url(#d-dark-bloom-shadow)"/><ellipse cx="40.24" cy="17.05" rx="2.55" ry="8.40" transform="rotate(215.6 40.24 17.05)" fill="url(#d-dark-bloom)" stroke="rgba(128,116,84,.42)" stroke-width="0.72" opacity="1" filter="url(#d-dark-bloom-shadow)"/><ellipse cx="45.36" cy="12.91" rx="2.55" ry="8.40" transform="rotate(233.6 45.36 12.91)" fill="url(#d-dark-bloom)" stroke="rgba(128,116,84,.42)" stroke-width="0.72" opacity="1" filter="url(#d-dark-bloom-shadow)"/><ellipse cx="48.87" cy="11.52" rx="2.55" ry="8.40" transform="rotate(243.8 48.87 11.52)" fill="#ffffff" stroke="rgba(128,116,84,.42)" stroke-width="0.72" opacity="1" filter="url(#d-dark-bloom-shadow)"/><ellipse cx="52.49" cy="10.77" rx="2.55" ry="8.40" transform="rotate(254.2 52.49 10.77)" fill="url(#d-dark-bloom)" stroke="rgba(128,116,84,.42)" stroke-width="0.72" opacity="1" filter="url(#d-dark-bloom-shadow)"/><ellipse cx="55.91" cy="8.83" rx="2.55" ry="8.40" transform="rotate(264.4 55.91 8.83)" fill="url(#d-dark-bloom)" stroke="rgba(128,116,84,.42)" stroke-width="0.72" opacity="1" filter="url(#d-dark-bloom-shadow)"/><ellipse cx="62.51" cy="9.72" rx="2.55" ry="8.40" transform="rotate(282.4 62.51 9.72)" fill="url(#d-dark-bloom)" stroke="rgba(128,116,84,.42)" stroke-width="0.72" opacity="1" filter="url(#d-dark-bloom-shadow)"/><ellipse cx="65.89" cy="11.27" rx="2.55" ry="8.40" transform="rotate(292.7 65.89 11.27)" fill="url(#d-dark-bloom)" stroke="rgba(128,116,84,.42)" stroke-width="0.72" opacity="1" filter="url(#d-dark-bloom-shadow)"/><ellipse cx="69.89" cy="11.78" rx="2.55" ry="8.40" transform="rotate(303.0 69.89 11.78)" fill="#ffffff" stroke="rgba(128,116,84,.42)" stroke-width="0.72" opacity="1" filter="url(#d-dark-bloom-shadow)"/><ellipse cx="72.59" cy="14.44" rx="2.55" ry="8.40" transform="rotate(313.3 72.59 14.44)" fill="url(#d-dark-bloom)" stroke="rgba(128,116,84,.42)" stroke-width="0.72" opacity="1" filter="url(#d-dark-bloom-shadow)"/><ellipse cx="74.68" cy="17.44" rx="2.55" ry="8.40" transform="rotate(323.6 74.68 17.44)" fill="url(#d-dark-bloom)" stroke="rgba(128,116,84,.42)" stroke-width="0.72" opacity="1" filter="url(#d-dark-bloom-shadow)"/><ellipse cx="77.12" cy="23.00" rx="2.55" ry="8.40" transform="rotate(341.6 77.12 23.00)" fill="url(#d-dark-bloom)" stroke="rgba(128,116,84,.42)" stroke-width="0.72" opacity="1" filter="url(#d-dark-bloom-shadow)"/><ellipse cx="79.34" cy="26.13" rx="2.55" ry="8.40" transform="rotate(351.9 79.34 26.13)" fill="url(#d-dark-bloom)" stroke="rgba(128,116,84,.42)" stroke-width="0.72" opacity="1" filter="url(#d-dark-bloom-shadow)"/><ellipse cx="74.73" cy="31.86" rx="2.38" ry="7.50" transform="rotate(10.3 74.73 31.86)" fill="url(#d-dark-bloom)" stroke="rgba(128,116,84,.42)" stroke-width="0.72" opacity="1" filter="url(#d-dark-bloom-shadow)"/><ellipse cx="73.19" cy="34.90" rx="2.38" ry="7.50" transform="rotate(22.4 73.19 34.90)" fill="url(#d-dark-bloom)" stroke="rgba(128,116,84,.42)" stroke-width="0.72" opacity="1" filter="url(#d-dark-bloom-shadow)"/><ellipse cx="71.21" cy="40.27" rx="2.38" ry="7.50" transform="rotate(42.2 71.21 40.27)" fill="url(#d-dark-bloom)" stroke="rgba(128,116,84,.42)" stroke-width="0.72" opacity="1" filter="url(#d-dark-bloom-shadow)"/><ellipse cx="68.06" cy="42.21" rx="2.38" ry="7.50" transform="rotate(54.4 68.06 42.21)" fill="url(#d-dark-bloom)" stroke="rgba(128,116,84,.42)" stroke-width="0.72" opacity="1" filter="url(#d-dark-bloom-shadow)"/><ellipse cx="64.66" cy="43.42" rx="2.38" ry="7.50" transform="rotate(66.5 64.66 43.42)" fill="#ffffff" stroke="rgba(128,116,84,.42)" stroke-width="0.72" opacity="1" filter="url(#d-dark-bloom-shadow)"/><ellipse cx="61.17" cy="43.89" rx="2.38" ry="7.50" transform="rotate(78.7 61.17 43.89)" fill="url(#d-dark-bloom)" stroke="rgba(128,116,84,.42)" stroke-width="0.72" opacity="1" filter="url(#d-dark-bloom-shadow)"/><ellipse cx="55.41" cy="45.33" rx="2.38" ry="7.50" transform="rotate(98.5 55.41 45.33)" fill="url(#d-dark-bloom)" stroke="rgba(128,116,84,.42)" stroke-width="0.72" opacity="1" filter="url(#d-dark-bloom-shadow)"/><ellipse cx="52.01" cy="43.96" rx="2.38" ry="7.50" transform="rotate(110.6 52.01 43.96)" fill="url(#d-dark-bloom)" stroke="rgba(128,116,84,.42)" stroke-width="0.72" opacity="1" filter="url(#d-dark-bloom-shadow)"/><ellipse cx="49.10" cy="41.99" rx="2.38" ry="7.50" transform="rotate(122.8 49.10 41.99)" fill="url(#d-dark-bloom)" stroke="rgba(128,116,84,.42)" stroke-width="0.72" opacity="1" filter="url(#d-dark-bloom-shadow)"/><ellipse cx="45.40" cy="40.88" rx="2.38" ry="7.50" transform="rotate(134.9 45.40 40.88)" fill="#ffffff" stroke="rgba(128,116,84,.42)" stroke-width="0.72" opacity="1" filter="url(#d-dark-bloom-shadow)"/><ellipse cx="43.50" cy="37.83" rx="2.38" ry="7.50" transform="rotate(147.1 43.50 37.83)" fill="url(#d-dark-bloom)" stroke="rgba(128,116,84,.42)" stroke-width="0.72" opacity="1" filter="url(#d-dark-bloom-shadow)"/><ellipse cx="41.72" cy="32.57" rx="2.38" ry="7.50" transform="rotate(166.9 41.72 32.57)" fill="url(#d-dark-bloom)" stroke="rgba(128,116,84,.42)" stroke-width="0.72" opacity="1" filter="url(#d-dark-bloom-shadow)"/><ellipse cx="41.84" cy="29.26" rx="2.38" ry="7.50" transform="rotate(179.0 41.84 29.26)" fill="url(#d-dark-bloom)" stroke="rgba(128,116,84,.42)" stroke-width="0.72" opacity="1" filter="url(#d-dark-bloom-shadow)"/><ellipse cx="40.77" cy="25.81" rx="2.38" ry="7.50" transform="rotate(191.2 40.77 25.81)" fill="url(#d-dark-bloom)" stroke="rgba(128,116,84,.42)" stroke-width="0.72" opacity="1" filter="url(#d-dark-bloom-shadow)"/><ellipse cx="42.39" cy="22.68" rx="2.38" ry="7.50" transform="rotate(203.3 42.39 22.68)" fill="#ffffff" stroke="rgba(128,116,84,.42)" stroke-width="0.72" opacity="1" filter="url(#d-dark-bloom-shadow)"/><ellipse cx="45.99" cy="18.44" rx="2.38" ry="7.50" transform="rotate(223.1 45.99 18.44)" fill="url(#d-dark-bloom)" stroke="rgba(128,116,84,.42)" stroke-width="0.72" opacity="1" filter="url(#d-dark-bloom-shadow)"/><ellipse cx="47.83" cy="15.22" rx="2.38" ry="7.50" transform="rotate(235.2 47.83 15.22)" fill="url(#d-dark-bloom)" stroke="rgba(128,116,84,.42)" stroke-width="0.72" opacity="1" filter="url(#d-dark-bloom-shadow)"/><ellipse cx="51.36" cy="14.01" rx="2.38" ry="7.50" transform="rotate(247.4 51.36 14.01)" fill="url(#d-dark-bloom)" stroke="rgba(128,116,84,.42)" stroke-width="0.72" opacity="1" filter="url(#d-dark-bloom-shadow)"/><ellipse cx="54.96" cy="13.54" rx="2.38" ry="7.50" transform="rotate(259.5 54.96 13.54)" fill="url(#d-dark-bloom)" stroke="rgba(128,116,84,.42)" stroke-width="0.72" opacity="1" filter="url(#d-dark-bloom-shadow)"/><ellipse cx="58.47" cy="13.82" rx="2.38" ry="7.50" transform="rotate(271.7 58.47 13.82)" fill="#ffffff" stroke="rgba(128,116,84,.42)" stroke-width="0.72" opacity="1" filter="url(#d-dark-bloom-shadow)"/><ellipse cx="64.43" cy="13.64" rx="2.38" ry="7.50" transform="rotate(291.5 64.43 13.64)" fill="url(#d-dark-bloom)" stroke="rgba(128,116,84,.42)" stroke-width="0.72" opacity="1" filter="url(#d-dark-bloom-shadow)"/><ellipse cx="67.41" cy="15.69" rx="2.38" ry="7.50" transform="rotate(303.6 67.41 15.69)" fill="url(#d-dark-bloom)" stroke="rgba(128,116,84,.42)" stroke-width="0.72" opacity="1" filter="url(#d-dark-bloom-shadow)"/><ellipse cx="69.78" cy="18.22" rx="2.38" ry="7.50" transform="rotate(315.8 69.78 18.22)" fill="url(#d-dark-bloom)" stroke="rgba(128,116,84,.42)" stroke-width="0.72" opacity="1" filter="url(#d-dark-bloom-shadow)"/><ellipse cx="73.11" cy="20.09" rx="2.38" ry="7.50" transform="rotate(327.9 73.11 20.09)" fill="url(#d-dark-bloom)" stroke="rgba(128,116,84,.42)" stroke-width="0.72" opacity="1" filter="url(#d-dark-bloom-shadow)"/><ellipse cx="74.88" cy="25.54" rx="2.38" ry="7.50" transform="rotate(347.7 74.88 25.54)" fill="#ffffff" stroke="rgba(128,116,84,.42)" stroke-width="0.72" opacity="1" filter="url(#d-dark-bloom-shadow)"/><ellipse cx="74.72" cy="28.96" rx="2.38" ry="7.50" transform="rotate(359.9 74.72 28.96)" fill="url(#d-dark-bloom)" stroke="rgba(128,116,84,.42)" stroke-width="0.72" opacity="1" filter="url(#d-dark-bloom-shadow)"/><ellipse cx="70.92" cy="33.66" rx="2.20" ry="6.50" transform="rotate(21.0 70.92 33.66)" fill="url(#d-dark-bloom)" stroke="rgba(128,116,84,.42)" stroke-width="0.72" opacity="1" filter="url(#d-dark-bloom-shadow)"/><ellipse cx="68.79" cy="36.28" rx="2.20" ry="6.50" transform="rotate(35.7 68.79 36.28)" fill="url(#d-dark-bloom)" stroke="rgba(128,116,84,.42)" stroke-width="0.72" opacity="1" filter="url(#d-dark-bloom-shadow)"/><ellipse cx="66.12" cy="38.20" rx="2.20" ry="6.50" transform="rotate(50.3 66.12 38.20)" fill="url(#d-dark-bloom)" stroke="rgba(128,116,84,.42)" stroke-width="0.72" opacity="1" filter="url(#d-dark-bloom-shadow)"/><ellipse cx="61.63" cy="39.91" rx="2.20" ry="6.50" transform="rotate(72.6 61.63 39.91)" fill="#ffffff" stroke="rgba(128,116,84,.42)" stroke-width="0.72" opacity="1" filter="url(#d-dark-bloom-shadow)"/><ellipse cx="58.64" cy="41.73" rx="2.20" ry="6.50" transform="rotate(87.3 58.64 41.73)" fill="url(#d-dark-bloom)" stroke="rgba(128,116,84,.42)" stroke-width="0.72" opacity="1" filter="url(#d-dark-bloom-shadow)"/><ellipse cx="55.30" cy="40.95" rx="2.20" ry="6.50" transform="rotate(102.0 55.30 40.95)" fill="url(#d-dark-bloom)" stroke="rgba(128,116,84,.42)" stroke-width="0.72" opacity="1" filter="url(#d-dark-bloom-shadow)"/><ellipse cx="52.42" cy="39.45" rx="2.20" ry="6.50" transform="rotate(116.6 52.42 39.45)" fill="url(#d-dark-bloom)" stroke="rgba(128,116,84,.42)" stroke-width="0.72" opacity="1" filter="url(#d-dark-bloom-shadow)"/><ellipse cx="47.56" cy="37.54" rx="2.20" ry="6.50" transform="rotate(138.9 47.56 37.54)" fill="url(#d-dark-bloom)" stroke="rgba(128,116,84,.42)" stroke-width="0.72" opacity="1" filter="url(#d-dark-bloom-shadow)"/><ellipse cx="46.10" cy="34.55" rx="2.20" ry="6.50" transform="rotate(153.6 46.10 34.55)" fill="#ffffff" stroke="rgba(128,116,84,.42)" stroke-width="0.72" opacity="1" filter="url(#d-dark-bloom-shadow)"/><ellipse cx="45.55" cy="31.43" rx="2.20" ry="6.50" transform="rotate(168.3 45.55 31.43)" fill="url(#d-dark-bloom)" stroke="rgba(128,116,84,.42)" stroke-width="0.72" opacity="1" filter="url(#d-dark-bloom-shadow)"/><ellipse cx="45.86" cy="28.41" rx="2.20" ry="6.50" transform="rotate(182.9 45.86 28.41)" fill="url(#d-dark-bloom)" stroke="rgba(128,116,84,.42)" stroke-width="0.72" opacity="1" filter="url(#d-dark-bloom-shadow)"/><ellipse cx="45.07" cy="25.15" rx="2.20" ry="6.50" transform="rotate(197.6 45.07 25.15)" fill="url(#d-dark-bloom)" stroke="rgba(128,116,84,.42)" stroke-width="0.72" opacity="1" filter="url(#d-dark-bloom-shadow)"/><ellipse cx="48.03" cy="21.16" rx="2.20" ry="6.50" transform="rotate(219.9 48.03 21.16)" fill="url(#d-dark-bloom)" stroke="rgba(128,116,84,.42)" stroke-width="0.72" opacity="1" filter="url(#d-dark-bloom-shadow)"/><ellipse cx="50.79" cy="19.47" rx="2.20" ry="6.50" transform="rotate(234.6 50.79 19.47)" fill="#ffffff" stroke="rgba(128,116,84,.42)" stroke-width="0.72" opacity="1" filter="url(#d-dark-bloom-shadow)"/><ellipse cx="53.09" cy="16.83" rx="2.20" ry="6.50" transform="rotate(249.2 53.09 16.83)" fill="url(#d-dark-bloom)" stroke="rgba(128,116,84,.42)" stroke-width="0.72" opacity="1" filter="url(#d-dark-bloom-shadow)"/><ellipse cx="56.59" cy="16.59" rx="2.20" ry="6.50" transform="rotate(263.9 56.59 16.59)" fill="url(#d-dark-bloom)" stroke="rgba(128,116,84,.42)" stroke-width="0.72" opacity="1" filter="url(#d-dark-bloom-shadow)"/><ellipse cx="61.55" cy="17.52" rx="2.20" ry="6.50" transform="rotate(286.2 61.55 17.52)" fill="url(#d-dark-bloom)" stroke="rgba(128,116,84,.42)" stroke-width="0.72" opacity="1" filter="url(#d-dark-bloom-shadow)"/><ellipse cx="64.24" cy="19.19" rx="2.20" ry="6.50" transform="rotate(300.9 64.24 19.19)" fill="url(#d-dark-bloom)" stroke="rgba(128,116,84,.42)" stroke-width="0.72" opacity="1" filter="url(#d-dark-bloom-shadow)"/><ellipse cx="67.68" cy="20.07" rx="2.20" ry="6.50" transform="rotate(315.5 67.68 20.07)" fill="#ffffff" stroke="rgba(128,116,84,.42)" stroke-width="0.72" opacity="1" filter="url(#d-dark-bloom-shadow)"/><ellipse cx="69.28" cy="22.93" rx="2.20" ry="6.50" transform="rotate(330.2 69.28 22.93)" fill="url(#d-dark-bloom)" stroke="rgba(128,116,84,.42)" stroke-width="0.72" opacity="1" filter="url(#d-dark-bloom-shadow)"/><ellipse cx="70.01" cy="25.95" rx="2.20" ry="6.50" transform="rotate(344.9 70.01 25.95)" fill="url(#d-dark-bloom)" stroke="rgba(128,116,84,.42)" stroke-width="0.72" opacity="1" filter="url(#d-dark-bloom-shadow)"/><ellipse cx="71.73" cy="30.63" rx="2.20" ry="6.50" transform="rotate(367.2 71.73 30.63)" fill="url(#d-dark-bloom)" stroke="rgba(128,116,84,.42)" stroke-width="0.72" opacity="1" filter="url(#d-dark-bloom-shadow)"/><ellipse cx="66.68" cy="29.81" rx="2.00" ry="5.60" transform="rotate(5.7 66.68 29.81)" fill="url(#d-dark-bloom)" stroke="rgba(128,116,84,.42)" stroke-width="0.72" opacity="1" filter="url(#d-dark-bloom-shadow)"/><ellipse cx="65.38" cy="32.26" rx="2.00" ry="5.60" transform="rotate(25.2 65.38 32.26)" fill="url(#d-dark-bloom)" stroke="rgba(128,116,84,.42)" stroke-width="0.72" opacity="1" filter="url(#d-dark-bloom-shadow)"/><ellipse cx="64.80" cy="35.32" rx="2.00" ry="5.60" transform="rotate(44.7 64.80 35.32)" fill="#ffffff" stroke="rgba(128,116,84,.42)" stroke-width="0.72" opacity="1" filter="url(#d-dark-bloom-shadow)"/><ellipse cx="61.93" cy="36.61" rx="2.00" ry="5.60" transform="rotate(64.1 61.93 36.61)" fill="url(#d-dark-bloom)" stroke="rgba(128,116,84,.42)" stroke-width="0.72" opacity="1" filter="url(#d-dark-bloom-shadow)"/><ellipse cx="57.82" cy="36.93" rx="2.00" ry="5.60" transform="rotate(91.3 57.82 36.93)" fill="url(#d-dark-bloom)" stroke="rgba(128,116,84,.42)" stroke-width="0.72" opacity="1" filter="url(#d-dark-bloom-shadow)"/><ellipse cx="54.52" cy="37.65" rx="2.00" ry="5.60" transform="rotate(110.7 54.52 37.65)" fill="url(#d-dark-bloom)" stroke="rgba(128,116,84,.42)" stroke-width="0.72" opacity="1" filter="url(#d-dark-bloom-shadow)"/><ellipse cx="52.01" cy="35.66" rx="2.00" ry="5.60" transform="rotate(130.2 52.01 35.66)" fill="url(#d-dark-bloom)" stroke="rgba(128,116,84,.42)" stroke-width="0.72" opacity="1" filter="url(#d-dark-bloom-shadow)"/><ellipse cx="50.47" cy="33.14" rx="2.00" ry="5.60" transform="rotate(149.7 50.47 33.14)" fill="#ffffff" stroke="rgba(128,116,84,.42)" stroke-width="0.72" opacity="1" filter="url(#d-dark-bloom-shadow)"/><ellipse cx="49.85" cy="29.43" rx="2.00" ry="5.60" transform="rotate(176.8 49.85 29.43)" fill="url(#d-dark-bloom)" stroke="rgba(128,116,84,.42)" stroke-width="0.72" opacity="1" filter="url(#d-dark-bloom-shadow)"/><ellipse cx="48.82" cy="26.48" rx="2.00" ry="5.60" transform="rotate(196.3 48.82 26.48)" fill="url(#d-dark-bloom)" stroke="rgba(128,116,84,.42)" stroke-width="0.72" opacity="1" filter="url(#d-dark-bloom-shadow)"/><ellipse cx="50.70" cy="24.06" rx="2.00" ry="5.60" transform="rotate(215.8 50.70 24.06)" fill="url(#d-dark-bloom)" stroke="rgba(128,116,84,.42)" stroke-width="0.72" opacity="1" filter="url(#d-dark-bloom-shadow)"/><ellipse cx="53.19" cy="22.48" rx="2.00" ry="5.60" transform="rotate(235.2 53.19 22.48)" fill="url(#d-dark-bloom)" stroke="rgba(128,116,84,.42)" stroke-width="0.72" opacity="1" filter="url(#d-dark-bloom-shadow)"/><ellipse cx="55.41" cy="20.08" rx="2.00" ry="5.60" transform="rotate(254.7 55.41 20.08)" fill="#ffffff" stroke="rgba(128,116,84,.42)" stroke-width="0.72" opacity="1" filter="url(#d-dark-bloom-shadow)"/><ellipse cx="59.90" cy="20.46" rx="2.00" ry="5.60" transform="rotate(281.8 59.90 20.46)" fill="url(#d-dark-bloom)" stroke="rgba(128,116,84,.42)" stroke-width="0.72" opacity="1" filter="url(#d-dark-bloom-shadow)"/><ellipse cx="62.53" cy="22.00" rx="2.00" ry="5.60" transform="rotate(301.3 62.53 22.00)" fill="url(#d-dark-bloom)" stroke="rgba(128,116,84,.42)" stroke-width="0.72" opacity="1" filter="url(#d-dark-bloom-shadow)"/><ellipse cx="64.32" cy="24.15" rx="2.00" ry="5.60" transform="rotate(320.8 64.32 24.15)" fill="url(#d-dark-bloom)" stroke="rgba(128,116,84,.42)" stroke-width="0.72" opacity="1" filter="url(#d-dark-bloom-shadow)"/><ellipse cx="67.00" cy="25.97" rx="2.00" ry="5.60" transform="rotate(340.3 67.00 25.97)" fill="url(#d-dark-bloom)" stroke="rgba(128,116,84,.42)" stroke-width="0.72" opacity="1" filter="url(#d-dark-bloom-shadow)"/><ellipse cx="63.74" cy="31.11" rx="1.70" ry="4.40" transform="rotate(21.4 63.74 31.11)" fill="url(#d-dark-bloom)" stroke="rgba(128,116,84,.42)" stroke-width="0.72" opacity="1" filter="url(#d-dark-bloom-shadow)"/><ellipse cx="61.62" cy="33.01" rx="1.70" ry="4.40" transform="rotate(49.7 61.62 33.01)" fill="#ffffff" stroke="rgba(128,116,84,.42)" stroke-width="0.72" opacity="1" filter="url(#d-dark-bloom-shadow)"/><ellipse cx="59.05" cy="33.63" rx="1.70" ry="4.40" transform="rotate(78.0 59.05 33.63)" fill="url(#d-dark-bloom)" stroke="rgba(128,116,84,.42)" stroke-width="0.72" opacity="1" filter="url(#d-dark-bloom-shadow)"/><ellipse cx="56.19" cy="34.81" rx="1.70" ry="4.40" transform="rotate(106.3 56.19 34.81)" fill="url(#d-dark-bloom)" stroke="rgba(128,116,84,.42)" stroke-width="0.72" opacity="1" filter="url(#d-dark-bloom-shadow)"/><ellipse cx="53.87" cy="32.94" rx="1.70" ry="4.40" transform="rotate(134.6 53.87 32.94)" fill="url(#d-dark-bloom)" stroke="rgba(128,116,84,.42)" stroke-width="0.72" opacity="1" filter="url(#d-dark-bloom-shadow)"/><ellipse cx="52.75" cy="29.82" rx="1.70" ry="4.40" transform="rotate(170.6 52.75 29.82)" fill="url(#d-dark-bloom)" stroke="rgba(128,116,84,.42)" stroke-width="0.72" opacity="1" filter="url(#d-dark-bloom-shadow)"/><ellipse cx="53.50" cy="27.55" rx="1.70" ry="4.40" transform="rotate(198.8 53.50 27.55)" fill="#ffffff" stroke="rgba(128,116,84,.42)" stroke-width="0.72" opacity="1" filter="url(#d-dark-bloom-shadow)"/><ellipse cx="53.81" cy="24.75" rx="1.70" ry="4.40" transform="rotate(227.2 53.81 24.75)" fill="url(#d-dark-bloom)" stroke="rgba(128,116,84,.42)" stroke-width="0.72" opacity="1" filter="url(#d-dark-bloom-shadow)"/><ellipse cx="56.59" cy="23.90" rx="1.70" ry="4.40" transform="rotate(255.4 56.59 23.90)" fill="url(#d-dark-bloom)" stroke="rgba(128,116,84,.42)" stroke-width="0.72" opacity="1" filter="url(#d-dark-bloom-shadow)"/><ellipse cx="59.84" cy="24.59" rx="1.70" ry="4.40" transform="rotate(291.4 59.84 24.59)" fill="url(#d-dark-bloom)" stroke="rgba(128,116,84,.42)" stroke-width="0.72" opacity="1" filter="url(#d-dark-bloom-shadow)"/><ellipse cx="62.91" cy="25.08" rx="1.70" ry="4.40" transform="rotate(319.7 62.91 25.08)" fill="url(#d-dark-bloom)" stroke="rgba(128,116,84,.42)" stroke-width="0.72" opacity="1" filter="url(#d-dark-bloom-shadow)"/><ellipse cx="63.75" cy="27.85" rx="1.70" ry="4.40" transform="rotate(348.0 63.75 27.85)" fill="#ffffff" stroke="rgba(128,116,84,.42)" stroke-width="0.72" opacity="1" filter="url(#d-dark-bloom-shadow)"/><ellipse cx="60.03" cy="29.15" rx="1.38" ry="3.30" transform="rotate(4.5 60.03 29.15)" fill="#ffffff" stroke="rgba(128,116,84,.42)" stroke-width="0.72" opacity="1" filter="url(#d-dark-bloom-shadow)"/><ellipse cx="59.62" cy="31.85" rx="1.38" ry="3.30" transform="rotate(61.8 59.62 31.85)" fill="url(#d-dark-bloom)" stroke="rgba(128,116,84,.42)" stroke-width="0.72" opacity="1" filter="url(#d-dark-bloom-shadow)"/><ellipse cx="56.94" cy="31.52" rx="1.38" ry="3.30" transform="rotate(111.6 56.94 31.52)" fill="url(#d-dark-bloom)" stroke="rgba(128,116,84,.42)" stroke-width="0.72" opacity="1" filter="url(#d-dark-bloom-shadow)"/><ellipse cx="55.80" cy="29.70" rx="1.38" ry="3.30" transform="rotate(161.3 55.80 29.70)" fill="url(#d-dark-bloom)" stroke="rgba(128,116,84,.42)" stroke-width="0.72" opacity="1" filter="url(#d-dark-bloom-shadow)"/><ellipse cx="56.49" cy="28.15" rx="1.38" ry="3.30" transform="rotate(211.0 56.49 28.15)" fill="url(#d-dark-bloom)" stroke="rgba(128,116,84,.42)" stroke-width="0.72" opacity="1" filter="url(#d-dark-bloom-shadow)"/><ellipse cx="57.49" cy="26.07" rx="1.38" ry="3.30" transform="rotate(260.7 57.49 26.07)" fill="#ffffff" stroke="rgba(128,116,84,.42)" stroke-width="0.72" opacity="1" filter="url(#d-dark-bloom-shadow)"/><ellipse cx="59.94" cy="27.37" rx="1.38" ry="3.30" transform="rotate(318.1 59.94 27.37)" fill="url(#d-dark-bloom)" stroke="rgba(128,116,84,.42)" stroke-width="0.72" opacity="1" filter="url(#d-dark-bloom-shadow)"/><path d="M47 34c6 5 15 5 22 0" fill="none" stroke="rgba(101,91,65,.34)" stroke-width="1.7" stroke-linecap="round"/><circle cx="58" cy="29" r="4.4" fill="#fffef8" stroke="rgba(128,116,84,.42)" stroke-width="1"/></g>
      <circle cx="77" cy="24" r="9.2" fill="#30d158" opacity=".14"/>
      <circle cx="77" cy="24" r="5.7" fill="#30d158" stroke="#fffef8" stroke-width="2.2"/>
      <circle cx="77" cy="24" r="10" fill="none" stroke="#30d158" stroke-width="1.2" opacity=".34"/>
    </g>
  </svg>